<svg class="border shadow-md" viewBox="0 0 863.5733333333334 485.76" xmlns="http://www.w3.org/2000/svg" preserveAspectRatio="none" style="width: 863.573px; height: 485.76px;"><rect class="bg" id="bg" x="0" y="0" width="863.5733333333334" height="485.76" fill="#ffffff"/><path d="M 0 -48.576 L 0 -48.58&#10;                L 58.00 -0.58&#10;                L 172.7146666666667 -48.58 L 172.7146666666667 -48.58&#10;                L 272.71 -24.29&#10;                L 345.4293333333334 -48.58 L 345.4293333333334 -48.58&#10;                L 410.43 -11.58&#10;                L 518.144 -48.58 L 518.144 -48.58&#10;                L 575.72 -24.29&#10;                L 690.8586666666667 -48.58 L 690.8586666666667 -48.58&#10;                L 748.43 -15.58&#10;                L 863.5733333333335 -48.58 L 863.5733333333335 -48.58&#10;                L 932.57 -15.58&#10;                L 1036.2880000000002 -48.58  V 485.76 H 0 V -48.58 Z" fill="#5960FF"/><path d="M 0 0 L 0 0.00&#10;                L 68.00 24.29&#10;                L 172.7146666666667 0.00 L 172.7146666666667 0.00&#10;                L 255.71 47.00&#10;                L 345.4293333333334 0.00 L 345.4293333333334 0.00&#10;                L 417.43 24.29&#10;                L 518.144 0.00 L 518.144 0.00&#10;                L 578.14 24.29&#10;                L 690.8586666666667 0.00 L 690.8586666666667 0.00&#10;                L 815.86 24.29&#10;                L 863.5733333333335 0.00 L 863.5733333333335 0.00&#10;                L 921.14 24.29&#10;                L 1036.2880000000002 0.00  V 485.76 H 0 V 0.00 Z" fill="#5359ea"/><path d="M 0 48.576 L 0 48.58&#10;                L 57.57 86.58&#10;                L 172.7146666666667 48.58 L 172.7146666666667 48.58&#10;                L 230.29 81.58&#10;                L 345.4293333333334 48.58 L 345.4293333333334 48.58&#10;                L 446.43 72.86&#10;                L 518.144 48.58 L 518.144 48.58&#10;                L 608.14 94.58&#10;                L 690.8586666666667 48.58 L 690.8586666666667 48.58&#10;                L 748.43 72.86&#10;                L 863.5733333333335 48.58 L 863.5733333333335 48.58&#10;                L 958.57 73.58&#10;                L 1036.2880000000002 48.58  V 485.76 H 0 V 48.58 Z" fill="#4d52d5"/><path d="M 0 97.152 L 0 97.15&#10;                L 57.57 121.44&#10;                L 172.7146666666667 97.15 L 172.7146666666667 97.15&#10;                L 230.29 136.15&#10;                L 345.4293333333334 97.15 L 345.4293333333334 97.15&#10;                L 411.43 123.15&#10;                L 518.144 97.15 L 518.144 97.15&#10;                L 606.14 140.15&#10;                L 690.8586666666667 97.15 L 690.8586666666667 97.15&#10;                L 805.86 144.15&#10;                L 863.5733333333335 97.15 L 863.5733333333335 97.15&#10;                L 921.14 121.44&#10;                L 1036.2880000000002 97.15  V 485.76 H 0 V 97.15 Z" fill="#474bc0"/><path d="M 0 145.728 L 0 145.73&#10;                L 124.00 183.73&#10;                L 172.7146666666667 145.73 L 172.7146666666667 145.73&#10;                L 230.29 176.73&#10;                L 345.4293333333334 145.73 L 345.4293333333334 145.73&#10;                L 403.00 179.73&#10;                L 518.144 145.73 L 518.144 145.73&#10;                L 633.14 170.02&#10;                L 690.8586666666667 145.73 L 690.8586666666667 145.73&#10;                L 762.86 176.73&#10;                L 863.5733333333335 145.73 L 863.5733333333335 145.73&#10;                L 978.57 181.73&#10;                L 1036.2880000000002 145.73  V 485.76 H 0 V 145.73 Z" fill="#4144ab"/><path d="M 0 194.304 L 0 194.30&#10;                L 58.00 220.30&#10;                L 172.7146666666667 194.30 L 172.7146666666667 194.30&#10;                L 269.71 218.59&#10;                L 345.4293333333334 194.30 L 345.4293333333334 194.30&#10;                L 403.00 236.30&#10;                L 518.144 194.30 L 518.144 194.30&#10;                L 575.72 231.30&#10;                L 690.8586666666667 194.30 L 690.8586666666667 194.30&#10;                L 748.43 218.59&#10;                L 863.5733333333335 194.30 L 863.5733333333335 194.30&#10;                L 987.57 218.59&#10;                L 1036.2880000000002 194.30  V 485.76 H 0 V 194.30 Z" fill="#3b3d96"/><path d="M 0 242.88 L 0 242.88&#10;                L 119.00 290.88&#10;                L 172.7146666666667 242.88 L 172.7146666666667 242.88&#10;                L 251.71 280.88&#10;                L 345.4293333333334 242.88 L 345.4293333333334 242.88&#10;                L 435.43 267.17&#10;                L 518.144 242.88 L 518.144 242.88&#10;                L 628.14 267.17&#10;                L 690.8586666666667 242.88 L 690.8586666666667 242.88&#10;                L 748.43 267.17&#10;                L 863.5733333333335 242.88 L 863.5733333333335 242.88&#10;                L 932.57 267.88&#10;                L 1036.2880000000002 242.88  V 485.76 H 0 V 242.88 Z" fill="#353681"/><path d="M 0 291.456 L 0 291.46&#10;                L 57.57 315.74&#10;                L 172.7146666666667 291.46 L 172.7146666666667 291.46&#10;                L 299.71 315.74&#10;                L 345.4293333333334 291.46 L 345.4293333333334 291.46&#10;                L 469.43 319.46&#10;                L 518.144 291.46 L 518.144 291.46&#10;                L 636.14 315.74&#10;                L 690.8586666666667 291.46 L 690.8586666666667 291.46&#10;                L 748.43 315.74&#10;                L 863.5733333333335 291.46 L 863.5733333333335 291.46&#10;                L 921.14 315.74&#10;                L 1036.2880000000002 291.46  V 485.76 H 0 V 291.46 Z" fill="#2f2f6c"/><path d="M 0 340.032 L 0 340.03&#10;                L 63.00 368.03&#10;                L 172.7146666666667 340.03 L 172.7146666666667 340.03&#10;                L 230.29 364.32&#10;                L 345.4293333333334 340.03 L 345.4293333333334 340.03&#10;                L 403.00 375.03&#10;                L 518.144 340.03 L 518.144 340.03&#10;                L 643.14 374.03&#10;                L 690.8586666666667 340.03 L 690.8586666666667 340.03&#10;                L 748.43 365.03&#10;                L 863.5733333333335 340.03 L 863.5733333333335 340.03&#10;                L 983.57 364.32&#10;                L 1036.2880000000002 340.03  V 485.76 H 0 V 340.03 Z" fill="#292857"/><path d="M 0 388.608 L 0 388.61&#10;                L 110.00 412.90&#10;                L 172.7146666666667 388.61 L 172.7146666666667 388.61&#10;                L 230.29 433.61&#10;                L 345.4293333333334 388.61 L 345.4293333333334 388.61&#10;                L 403.00 431.61&#10;                L 518.144 388.61 L 518.144 388.61&#10;                L 575.72 412.90&#10;                L 690.8586666666667 388.61 L 690.8586666666667 388.61&#10;                L 748.43 412.90&#10;                L 863.5733333333335 388.61 L 863.5733333333335 388.61&#10;                L 921.14 412.90&#10;                L 1036.2880000000002 388.61  V 485.76 H 0 V 388.61 Z" fill="#232142"/><path d="M 0 437.184 L 0 437.18&#10;                L 57.57 479.18&#10;                L 172.7146666666667 437.18 L 172.7146666666667 437.18&#10;                L 230.29 461.47&#10;                L 345.4293333333334 437.18 L 345.4293333333334 437.18&#10;                L 471.43 471.18&#10;                L 518.144 437.18 L 518.144 437.18&#10;                L 578.14 473.18&#10;                L 690.8586666666667 437.18 L 690.8586666666667 437.18&#10;                L 755.86 461.47&#10;                L 863.5733333333335 437.18 L 863.5733333333335 437.18&#10;                L 921.14 461.47&#10;                L 1036.2880000000002 437.18  V 485.76 H 0 V 437.18 Z" fill="#1d1a2d"/></svg>